<svg 
 xmlns="http://www.w3.org/2000/svg"
 xmlns:xlink="http://www.w3.org/1999/xlink"
 width="24px" height="27px">
<defs>
<filter id="Filter_0">
    <feFlood flood-color="rgb(204, 204, 204)" flood-opacity="1" result="floodOut" />
    <feComposite operator="atop" in="floodOut" in2="SourceGraphic" result="compOut" />
    <feBlend mode="normal" in="compOut" in2="SourceGraphic" />
</filter>

</defs>
<g filter="url(#Filter_0)">
<path fill-rule="evenodd"  fill="rgb(0, 0, 0)"
 d="M21.995,9.369 C22.833,11.014 23.313,12.883 23.313,14.868 C23.313,18.565 21.665,21.870 19.090,24.044 L20.306,25.688 C20.565,26.037 20.499,26.535 20.163,26.803 C20.023,26.911 19.859,26.966 19.697,26.966 C19.466,26.966 19.237,26.857 19.085,26.653 L17.830,24.956 C16.088,26.064 14.046,26.714 11.856,26.714 C9.591,26.714 7.484,26.023 5.705,24.846 L4.369,26.653 C4.217,26.857 3.988,26.966 3.757,26.966 C3.594,26.966 3.431,26.911 3.292,26.803 C2.954,26.535 2.889,26.037 3.148,25.688 L4.465,23.906 C1.980,21.732 0.396,18.489 0.396,14.868 C0.396,12.813 0.906,10.879 1.801,9.192 C0.680,8.331 0.000,7.004 0.000,5.546 C0.000,3.025 1.985,0.975 4.421,0.975 C6.133,0.975 7.666,1.992 8.400,3.574 C9.492,3.216 10.652,3.021 11.856,3.021 C13.151,3.021 14.391,3.254 15.553,3.666 C16.269,2.030 17.833,0.975 19.578,0.975 C22.017,0.975 24.000,3.025 24.000,5.546 C24.000,7.098 23.249,8.521 21.995,9.369 ZM4.421,2.563 C2.831,2.563 1.536,3.901 1.536,5.546 C1.536,6.463 1.953,7.297 2.637,7.861 C3.757,6.291 5.238,5.019 6.957,4.174 C6.461,3.198 5.503,2.563 4.421,2.563 ZM11.856,4.611 C6.384,4.611 1.932,9.211 1.932,14.868 C1.932,20.523 6.384,25.125 11.856,25.125 C17.325,25.125 21.777,20.523 21.777,14.868 C21.777,9.211 17.325,4.611 11.856,4.611 ZM19.578,2.563 C18.453,2.563 17.452,3.241 16.978,4.286 C18.658,5.159 20.101,6.443 21.184,8.015 C21.983,7.458 22.463,6.544 22.463,5.546 C22.463,3.901 21.169,2.563 19.578,2.563 ZM14.035,18.142 C13.838,18.142 13.639,18.062 13.489,17.905 L11.416,15.619 C11.274,15.469 11.312,15.268 11.312,15.060 L11.312,8.779 C11.312,8.340 11.655,7.983 12.078,7.983 C12.502,7.983 12.848,8.340 12.848,8.779 L12.848,14.732 L14.697,16.788 C14.996,17.100 14.936,17.605 14.634,17.911 C14.483,18.066 14.230,18.142 14.035,18.142 ZM11.484,23.405 C11.467,23.612 11.300,23.768 11.103,23.768 C11.092,23.768 11.079,23.766 11.068,23.766 C10.900,23.750 10.737,23.729 10.574,23.704 C10.364,23.673 10.220,23.469 10.252,23.252 C10.281,23.037 10.478,22.889 10.689,22.918 C10.837,22.942 10.985,22.959 11.137,22.974 C11.349,22.994 11.505,23.186 11.484,23.405 ZM7.789,22.697 C7.725,22.697 7.659,22.680 7.599,22.645 C4.894,21.058 3.213,18.080 3.213,14.868 C3.213,14.649 3.386,14.470 3.598,14.470 C3.810,14.470 3.983,14.649 3.983,14.868 C3.983,17.793 5.513,20.508 7.978,21.955 C8.162,22.061 8.228,22.306 8.122,22.495 C8.053,22.625 7.922,22.697 7.789,22.697 Z"/>
</g>
</svg>