<svg 
 xmlns="http://www.w3.org/2000/svg"
 xmlns:xlink="http://www.w3.org/1999/xlink"
 width="18px" height="26px">
<defs>
<filter id="Filter_0">
    <feFlood flood-color="rgb(204, 204, 204)" flood-opacity="1" result="floodOut" />
    <feComposite operator="atop" in="floodOut" in2="SourceGraphic" result="compOut" />
    <feBlend mode="normal" in="compOut" in2="SourceGraphic" />
</filter>

</defs>
<g filter="url(#Filter_0)">
<path fill-rule="evenodd"  fill="rgb(0, 0, 0)"
 d="M15.361,26.000 L3.595,26.000 C2.148,26.000 0.974,24.740 0.974,23.185 L0.974,2.816 C0.974,1.262 2.148,-0.000 3.595,-0.000 L15.362,-0.000 C16.809,-0.000 17.981,1.262 17.981,2.816 L17.981,23.185 C17.981,24.740 16.808,26.000 15.361,26.000 ZM16.470,2.816 C16.470,2.158 15.973,1.624 15.361,1.624 L3.595,1.624 C2.982,1.624 2.486,2.158 2.486,2.816 L2.486,3.655 L16.470,3.655 L16.470,2.816 ZM16.470,4.469 L2.486,4.469 L2.486,19.906 L16.470,19.906 L16.470,4.469 ZM16.470,20.719 L2.486,20.719 L2.486,23.185 C2.486,23.841 2.982,24.375 3.595,24.375 L15.362,24.375 C15.973,24.375 16.470,23.841 16.470,23.185 L16.470,20.719 ZM9.762,23.157 L9.572,23.157 C9.206,23.157 8.911,22.838 8.911,22.445 L8.911,22.243 C8.911,21.850 9.206,21.531 9.572,21.531 L9.762,21.531 C10.125,21.531 10.423,21.850 10.423,22.243 L10.423,22.445 C10.423,22.838 10.125,23.157 9.762,23.157 ZM7.352,14.041 C7.420,13.828 7.636,13.715 7.834,13.792 C8.029,13.866 8.134,14.098 8.064,14.310 L7.834,15.014 C7.780,15.181 7.634,15.286 7.478,15.286 C7.437,15.286 7.394,15.278 7.352,15.262 C7.156,15.189 7.051,14.956 7.121,14.744 L7.352,14.041 ZM7.857,12.493 L9.424,7.695 C9.492,7.482 9.708,7.371 9.906,7.446 C10.101,7.520 10.205,7.752 10.137,7.964 L8.570,12.763 C8.516,12.931 8.369,13.034 8.214,13.034 C8.171,13.034 8.129,13.027 8.088,13.010 C7.891,12.937 7.788,12.706 7.857,12.493 ZM10.459,12.277 C10.530,12.065 10.746,11.951 10.943,12.029 C11.139,12.102 11.242,12.334 11.174,12.544 L10.101,15.825 C10.046,15.994 9.901,16.097 9.745,16.097 C9.703,16.097 9.661,16.091 9.620,16.075 C9.422,16.000 9.319,15.768 9.389,15.558 L10.459,12.277 ZM10.830,11.146 L10.932,10.833 C11.002,10.620 11.216,10.507 11.414,10.585 C11.611,10.658 11.714,10.891 11.644,11.102 L11.543,11.416 C11.487,11.583 11.341,11.687 11.186,11.687 C11.144,11.687 11.102,11.680 11.061,11.664 C10.864,11.590 10.760,11.358 10.830,11.146 Z"/>
</g>
</svg>