<svg 
 xmlns="http://www.w3.org/2000/svg"
 xmlns:xlink="http://www.w3.org/1999/xlink"
 width="18px" height="26px">
<defs>
<filter id="Filter_0">
    <feFlood flood-color="rgb(204, 204, 204)" flood-opacity="1" result="floodOut" />
    <feComposite operator="atop" in="floodOut" in2="SourceGraphic" result="compOut" />
    <feBlend mode="normal" in="compOut" in2="SourceGraphic" />
</filter>

</defs>
<g filter="url(#Filter_0)">
<path fill-rule="evenodd"  fill="rgb(0, 0, 0)"
 d="M12.380,23.675 C11.631,25.176 10.587,26.000 9.441,26.000 C8.781,26.000 7.519,25.700 6.497,23.677 C5.313,21.336 0.906,11.592 0.906,8.524 C0.906,3.820 4.717,-0.007 9.403,-0.007 C14.088,-0.007 17.900,3.820 17.900,8.524 C17.900,11.557 13.503,21.427 12.380,23.675 ZM9.403,1.582 C5.591,1.582 2.488,4.697 2.488,8.524 C2.488,10.934 6.335,19.847 7.907,22.959 C8.375,23.882 8.933,24.412 9.441,24.412 C9.942,24.412 10.512,23.871 10.966,22.963 C12.341,20.211 16.316,10.971 16.316,8.524 C16.316,4.697 13.215,1.582 9.403,1.582 ZM6.877,11.256 C5.459,9.835 5.459,7.519 6.877,6.095 C7.564,5.407 8.478,5.026 9.449,5.026 C10.421,5.026 11.335,5.407 12.021,6.095 C13.437,7.519 13.437,9.835 12.021,11.256 C11.335,11.945 10.421,12.325 9.449,12.325 C8.478,12.325 7.565,11.945 6.877,11.256 ZM10.900,7.220 C10.514,6.830 9.998,6.615 9.449,6.615 C8.900,6.615 8.385,6.830 7.996,7.220 C7.197,8.023 7.197,9.331 7.996,10.133 C8.385,10.521 8.900,10.737 9.449,10.737 C9.998,10.737 10.514,10.523 10.900,10.133 C11.700,9.331 11.700,8.023 10.900,7.220 ZM9.625,3.149 C9.656,2.932 9.853,2.780 10.071,2.810 C11.816,3.048 13.358,4.043 14.303,5.537 C14.418,5.723 14.362,5.967 14.179,6.086 C14.113,6.126 14.040,6.148 13.968,6.148 C13.837,6.148 13.708,6.082 13.632,5.964 C12.813,4.665 11.476,3.803 9.965,3.597 C9.747,3.568 9.596,3.366 9.625,3.149 ZM14.390,6.543 C14.590,6.458 14.822,6.549 14.909,6.751 C14.959,6.865 14.977,6.951 15.008,7.092 C15.021,7.160 15.041,7.247 15.068,7.366 C15.118,7.579 14.987,7.794 14.774,7.845 C14.745,7.852 14.714,7.854 14.683,7.854 C14.503,7.854 14.341,7.732 14.299,7.550 C14.270,7.422 14.249,7.331 14.235,7.259 C14.208,7.137 14.200,7.107 14.183,7.065 C14.096,6.863 14.190,6.628 14.390,6.543 Z"/>
</g>
</svg>